<svg width="62" height="62" viewBox="0 0 62 62" fill="none" xmlns="http://www.w3.org/2000/svg">
<path d="M53.5178 43.4078C51.7694 43.4177 50.0669 44.024 48.6449 45.1431L41.7439 40.65C42.0695 39.5381 42.2404 38.3785 42.2509 37.2104C42.2428 34.4695 41.409 31.8088 39.8801 29.6445C38.3511 27.4803 36.2132 25.9347 33.8007 25.2495V18.0605C35.6801 17.3295 37.264 15.8912 38.2726 13.9997C39.2812 12.1083 39.6495 9.88542 39.3125 7.7241C38.9754 5.56277 37.9546 3.60212 36.4306 2.18868C34.9065 0.775231 32.9773 0 30.984 0C28.9906 0 27.0614 0.775231 25.5374 2.18868C24.0134 3.60212 22.9926 5.56277 22.6555 7.7241C22.3184 9.88542 22.6867 12.1083 23.6953 13.9997C24.7039 15.8912 26.2879 17.3295 28.1673 18.0605V25.2495C25.7548 25.9347 23.6169 27.4803 22.0879 29.6445C20.5589 31.8088 19.7252 34.4695 19.7171 37.2104C19.7276 38.3785 19.8985 39.5381 20.2241 40.65L13.3231 45.1431C11.9011 44.024 10.1986 43.4177 8.45018 43.4078C6.77889 43.4078 5.14514 43.953 3.75551 44.9745C2.36589 45.996 1.28281 47.4478 0.643235 49.1465C0.00366134 50.8451 -0.16368 52.7142 0.162372 54.5175C0.488424 56.3208 1.29322 57.9772 2.475 59.2772C3.65678 60.5773 5.16246 61.4627 6.80163 61.8214C8.44081 62.1801 10.1399 61.996 11.6839 61.2924C13.228 60.5888 14.5477 59.3973 15.4762 57.8685C16.4048 56.3398 16.9004 54.5425 16.9004 52.7039C16.8899 51.8646 16.7762 51.0307 16.5624 50.225L23.0408 45.9797C25.1518 48.2883 28.0074 49.5841 30.984 49.5841C33.9605 49.5841 36.8162 48.2883 38.9272 45.9797L45.4056 50.225C44.9337 52.1015 45.0092 54.0938 45.6217 55.9206C46.2341 57.7474 47.3525 59.3165 48.8191 60.4066C50.2856 61.4966 52.0263 62.0526 53.7954 61.996C55.5646 61.9394 57.2729 61.2731 58.6794 60.0912C60.0859 58.9092 61.1196 57.2712 61.6345 55.4084C62.1494 53.5455 62.1196 51.5518 61.5493 49.7086C60.9791 47.8653 59.8971 46.2656 58.456 45.1351C57.015 44.0046 55.2877 43.4004 53.5178 43.4078ZM8.45018 55.8026C7.89309 55.8026 7.3485 55.6209 6.88529 55.2804C6.42208 54.9399 6.06106 54.4559 5.84787 53.8897C5.63467 53.3235 5.57889 52.7005 5.68758 52.0994C5.79626 51.4983 6.06453 50.9462 6.45846 50.5128C6.85238 50.0794 7.35427 49.7843 7.90067 49.6648C8.44706 49.5452 9.01341 49.6066 9.5281 49.8411C10.0428 50.0756 10.4827 50.4728 10.7922 50.9824C11.1017 51.4919 11.2669 52.091 11.2669 52.7039C11.2669 53.5257 10.9701 54.3139 10.4419 54.895C9.91367 55.4761 9.19722 55.8026 8.45018 55.8026ZM30.984 6.2235C31.5411 6.2235 32.0857 6.40524 32.5489 6.74573C33.0121 7.08621 33.3731 7.57016 33.5863 8.13638C33.7995 8.70259 33.8553 9.32563 33.7466 9.92672C33.6379 10.5278 33.3696 11.0799 32.9757 11.5133C32.5818 11.9467 32.0799 12.2418 31.5335 12.3613C30.9871 12.4809 30.4208 12.4195 29.9061 12.185C29.3914 11.9505 28.9515 11.5533 28.642 11.0437C28.3325 10.5342 28.1673 9.93506 28.1673 9.3222C28.1673 8.50037 28.464 7.71221 28.9923 7.13109C29.5205 6.54997 30.2369 6.2235 30.984 6.2235ZM30.984 43.4078C29.8698 43.4078 28.7806 43.0444 27.8542 42.3634C26.9278 41.6824 26.2057 40.7145 25.7794 39.5821C25.353 38.4497 25.2414 37.2036 25.4588 36.0014C25.6761 34.7992 26.2127 33.6949 27.0005 32.8282C27.7884 31.9615 28.7922 31.3713 29.885 31.1321C30.9777 30.893 32.1104 31.0157 33.1398 31.4848C34.1692 31.9539 35.049 32.7482 35.668 33.7674C36.287 34.7865 36.6174 35.9847 36.6174 37.2104C36.6174 38.8541 36.0239 40.4304 34.9674 41.5927C33.911 42.7549 32.4781 43.4078 30.984 43.4078ZM53.5178 55.8026C52.9607 55.8026 52.4161 55.6209 51.9529 55.2804C51.4897 54.9399 51.1287 54.4559 50.9155 53.8897C50.7023 53.3235 50.6465 52.7005 50.7552 52.0994C50.8639 51.4983 51.1321 50.9462 51.5261 50.5128C51.92 50.0794 52.4219 49.7843 52.9683 49.6648C53.5147 49.5452 54.081 49.6066 54.5957 49.8411C55.1104 50.0756 55.5503 50.4728 55.8598 50.9824C56.1693 51.4919 56.3345 52.091 56.3345 52.7039C56.3345 53.5257 56.0378 54.3139 55.5095 54.895C54.9813 55.4761 54.2648 55.8026 53.5178 55.8026Z" fill="black"/>
</svg>
